<svg xmlns="http://www.w3.org/2000/svg" viewBox="0 0 200 200">
    <!-- Gradient Definitions -->
    <defs>
        <!-- Background Glow Gradient -->
        <radialGradient id="backgroundGlow" cx="50%" cy="50%" r="65%" fx="50%" fy="50%">
            <stop offset="0%" stop-color="#8B5CF6" stop-opacity="0.3" />
            <stop offset="100%" stop-color="#1E1E2F" stop-opacity="0" />
        </radialGradient>

        <!-- Wheel Gradient for Rim -->
        <linearGradient id="wheelGradient" x1="0%" y1="0%" x2="100%" y2="100%">
            <stop offset="0%" stop-color="#3B82F6" /> <!-- Blue -->
            <stop offset="25%" stop-color="#8B5CF6" /> <!-- Purple -->
            <stop offset="50%" stop-color="#EC4899" /> <!-- Pink -->
            <stop offset="75%" stop-color="#10B981" /> <!-- Green -->
            <stop offset="100%" stop-color="#F59E0B" /> <!-- Yellow -->
        </linearGradient>

        <!-- Arrow Gradient -->
        <linearGradient id="arrowGradient" x1="0%" y1="0%" x2="100%" y2="0%">
            <stop offset="0%" stop-color="#3B82F6" /> <!-- Blue -->
            <stop offset="25%" stop-color="#8B5CF6" /> <!-- Purple -->
            <stop offset="50%" stop-color="#10B981" /> <!-- Green -->
            <stop offset="75%" stop-color="#F59E0B" /> <!-- Yellow -->
            <stop offset="100%" stop-color="#EF4444" /> <!-- Red -->
        </linearGradient>

        <!-- Inner Wheel Gradient -->
        <radialGradient id="innerWheelGradient" cx="50%" cy="50%" r="50%" fx="50%" fy="50%">
            <stop offset="0%" stop-color="#C4B5FD" /> <!-- Light Purple -->
            <stop offset="100%" stop-color="#8B5CF6" /> <!-- Purple -->
        </radialGradient>

        <!-- Center Gradient -->
        <radialGradient id="centerGradient" cx="50%" cy="50%" r="50%" fx="50%" fy="50%">
            <stop offset="0%" stop-color="#9F7AEA" /> <!-- Purple -->
            <stop offset="50%" stop-color="#4C1D95" /> <!-- Deep Purple -->
            <stop offset="100%" stop-color="#312E81" /> <!-- Indigo -->
        </radialGradient>

        <!-- Filter for glow effect -->
        <filter id="glow" x="-20%" y="-20%" width="140%" height="140%">
            <feGaussianBlur stdDeviation="4" result="blur" />
            <feComposite in="SourceGraphic" in2="blur" operator="over" />
        </filter>

        <!-- Segment Colors -->
        <linearGradient id="segment1" x1="0%" y1="0%" x2="100%" y2="100%">
            <stop offset="0%" stop-color="#3B82F6" stop-opacity="0.8" /> <!-- Blue -->
            <stop offset="100%" stop-color="#2563EB" stop-opacity="0.8" /> <!-- Darker Blue -->
        </linearGradient>

        <linearGradient id="segment2" x1="0%" y1="0%" x2="100%" y2="100%">
            <stop offset="0%" stop-color="#8B5CF6" stop-opacity="0.8" /> <!-- Purple -->
            <stop offset="100%" stop-color="#7C3AED" stop-opacity="0.8" /> <!-- Darker Purple -->
        </linearGradient>

        <linearGradient id="segment3" x1="0%" y1="0%" x2="100%" y2="100%">
            <stop offset="0%" stop-color="#EC4899" stop-opacity="0.8" /> <!-- Pink -->
            <stop offset="100%" stop-color="#DB2777" stop-opacity="0.8" /> <!-- Darker Pink -->
        </linearGradient>

        <linearGradient id="segment4" x1="0%" y1="0%" x2="100%" y2="100%">
            <stop offset="0%" stop-color="#10B981" stop-opacity="0.8" /> <!-- Green -->
            <stop offset="100%" stop-color="#059669" stop-opacity="0.8" /> <!-- Darker Green -->
        </linearGradient>

        <linearGradient id="segment5" x1="0%" y1="0%" x2="100%" y2="100%">
            <stop offset="0%" stop-color="#F59E0B" stop-opacity="0.8" /> <!-- Yellow -->
            <stop offset="100%" stop-color="#D97706" stop-opacity="0.8" /> <!-- Darker Yellow -->
        </linearGradient>

        <linearGradient id="segment6" x1="0%" y1="0%" x2="100%" y2="100%">
            <stop offset="0%" stop-color="#6366F1" stop-opacity="0.8" /> <!-- Indigo -->
            <stop offset="100%" stop-color="#4F46E5" stop-opacity="0.8" /> <!-- Darker Indigo -->
        </linearGradient>

        <!-- Drop Shadow -->
        <filter id="shadow" x="-10%" y="-10%" width="120%" height="120%">
            <feDropShadow dx="0" dy="4" stdDeviation="4" flood-color="#000" flood-opacity="0.3" />
        </filter>
    </defs>

    <!-- Background Glow -->
    <circle cx="100" cy="100" r="90" fill="url(#backgroundGlow)" />

    <!-- Main Group with everything centered -->
    <g transform="translate(100, 100)" filter="url(#shadow)">
        <!-- Wheel segments -->
        <path d="M 0 0 L 60 0 A 60 60 0 0 1 30 51.96 Z" fill="url(#segment1)" />
        <path d="M 0 0 L 30 51.96 A 60 60 0 0 1 -30 51.96 Z" fill="url(#segment2)" />
        <path d="M 0 0 L -30 51.96 A 60 60 0 0 1 -60 0 Z" fill="url(#segment3)" />
        <path d="M 0 0 L -60 0 A 60 60 0 0 1 -30 -51.96 Z" fill="url(#segment4)" />
        <path d="M 0 0 L -30 -51.96 A 60 60 0 0 1 30 -51.96 Z" fill="url(#segment5)" />
        <path d="M 0 0 L 30 -51.96 A 60 60 0 0 1 60 0 Z" fill="url(#segment6)" />

        <!-- Wheel rim highlight -->
        <circle cx="0" cy="0" r="60" fill="none" stroke="url(#wheelGradient)" stroke-width="3" filter="url(#glow)" />

        <!-- Center wheel decoration -->
        <circle cx="0" cy="0" r="20" fill="url(#centerGradient)" />
        <circle cx="0" cy="0" r="12" fill="url(#innerWheelGradient)" />

        <!-- Arrow -->
        <g transform="translate(75, 0)">
            <path d="M -50 0 L -35 -15 Q -20 -20 0 -10 Q -20 20 -35 15 Z" fill="url(#arrowGradient)" stroke="white" stroke-width="2" />
            <path d="M -40 -5 Q -25 -10 -15 -5" fill="none" stroke="rgba(255, 255, 255, 0.6)" stroke-width="2" />
        </g>
    </g>

    <!-- Subtle shimmer effects -->
    <circle cx="85" cy="75" r="3" fill="white" opacity="0.7" />
    <circle cx="120" cy="90" r="2" fill="white" opacity="0.5" />
    <circle cx="95" cy="130" r="2" fill="white" opacity="0.5" />
    <circle cx="70" cy="105" r="1.5" fill="white" opacity="0.4" />
</svg>